<svg width="55" height="55" viewBox="0 0 55 55" fill="none" xmlns="http://www.w3.org/2000/svg">
<circle cx="27.5" cy="27.5" r="27.5" fill="#01B0CF"/>
<path d="M34.0991 23.6869L20.9 16.0754" stroke="white" stroke-width="2" stroke-linecap="round" stroke-linejoin="round"/>
<path d="M40.7 33.3669V21.6335C40.6995 21.1191 40.5637 20.6139 40.3063 20.1686C40.0489 19.7232 39.6789 19.3534 39.2334 19.0962L28.9667 13.2295C28.5208 12.9721 28.015 12.8365 27.5 12.8365C26.9851 12.8365 26.4793 12.9721 26.0334 13.2295L15.7667 19.0962C15.3212 19.3534 14.9512 19.7232 14.6938 20.1686C14.4364 20.6139 14.3006 21.1191 14.3 21.6335V33.3669C14.3006 33.8813 14.4364 34.3865 14.6938 34.8318C14.9512 35.2772 15.3212 35.647 15.7667 35.9042L26.0334 41.7709C26.4793 42.0283 26.9851 42.1639 27.5 42.1639C28.015 42.1639 28.5208 42.0283 28.9667 41.7709L39.2334 35.9042C39.6789 35.647 40.0489 35.2772 40.3063 34.8318C40.5637 34.3865 40.6995 33.8813 40.7 33.3669Z" stroke="white" stroke-width="2" stroke-linecap="round" stroke-linejoin="round"/>
<path d="M14.6953 20.109L27.4993 27.5157L40.3033 20.109" stroke="white" stroke-width="2" stroke-linecap="round" stroke-linejoin="round"/>
<path d="M27.5 42.2837V27.5007" stroke="white" stroke-width="2" stroke-linecap="round" stroke-linejoin="round"/>
</svg>
