<svg width="20" height="17" viewBox="0 0 20 17" fill="none" xmlns="http://www.w3.org/2000/svg">
<path fill-rule="evenodd" clip-rule="evenodd" d="M5.34884 0C3.84654 0 2.48805 0.370903 1.50201 1.27537C0.506623 2.18842 0 3.54432 0 5.28378V11.7162C0 13.4557 0.506623 14.8116 1.50201 15.7246C2.48805 16.6291 3.84654 17 5.34884 17H14.6512C16.1535 17 17.512 16.6291 18.498 15.7246C19.4934 14.8116 20 13.4557 20 11.7162V5.28378C20 3.54432 19.4934 2.18842 18.498 1.27537C17.512 0.370903 16.1535 0 14.6512 0H5.34884ZM16.7242 5.15725C17.029 4.92452 17.0852 4.49169 16.8496 4.19051C16.614 3.88931 16.1759 3.83382 15.871 4.06656L10.7109 8.00525C10.2922 8.32495 9.70772 8.32495 9.28893 8.00525L4.12893 4.06656C3.82403 3.83382 3.38588 3.88931 3.15028 4.19051C2.91468 4.49169 2.97086 4.92452 3.27576 5.15725L8.43581 9.09601C9.35712 9.79917 10.6428 9.79917 11.5641 9.09601L16.7242 5.15725Z" fill="white"/>
</svg>
