<svg width="18" height="15" viewBox="0 0 18 15" fill="none" xmlns="http://www.w3.org/2000/svg">
<path d="M17.191 1.15539C17.021 2.92939 15.641 11.9284 15.347 12.8314C15.097 13.6024 14.83 14.2664 14.326 14.2664C13.822 14.2664 13.271 14.0904 12.727 13.7024C12.184 13.3144 8.577 10.8954 8.076 10.5794C7.636 10.3024 7.172 9.61039 7.826 8.94339C8.366 8.39339 12.455 4.42539 12.804 4.07639C13.154 3.72639 12.812 3.27939 12.385 3.62839C11.957 3.97739 6 7.96339 5.485 8.28439C4.997 8.58639 4.128 8.76939 3.365 8.55939C2.46902 8.31074 1.57972 8.03865 0.698 7.74339C0.186 7.56039 0 7.38439 0 7.07139C0 6.62639 0.628 6.31939 1.292 6.03739C1.992 5.73939 14.104 0.597394 15.052 0.255394C15.742 0.00539351 16.338 -0.0906064 16.74 0.102394C17.072 0.262394 17.242 0.618394 17.19 1.15539H17.191Z" fill="black"/>
</svg>
