<svg width="18" height="16" viewBox="0 0 18 16" fill="none" xmlns="http://www.w3.org/2000/svg">
<path d="M16.4654 0.141253C16.4654 0.141253 18.1306 -0.551318 17.9918 1.13064C17.9455 1.82322 17.5293 4.24722 17.2055 6.86912L16.0954 14.6358C16.0954 14.6358 16.0029 15.7736 15.1703 15.9715C14.3377 16.1694 13.0889 15.2789 12.8576 15.081C12.6726 14.9327 9.38863 12.7065 8.23226 11.6182C7.90848 11.3214 7.53845 10.7277 8.27851 10.0351L13.1352 5.08823C13.6902 4.49458 14.2453 3.10944 11.9326 4.7914L5.45705 9.49101C5.45705 9.49101 4.71699 9.98569 3.3294 9.54047L0.322895 8.55108C0.322895 8.55108 -0.787196 7.80905 1.10921 7.06697C5.73459 4.74189 11.4238 2.36736 16.4654 0.141253Z" fill="white"/>
</svg>
