<svg width="17" height="17" viewBox="0 0 17 17" fill="none" xmlns="http://www.w3.org/2000/svg">
<path d="M10.1044 0.154824L9.59423 0.0835217C8.06106 -0.136929 6.49655 0.0811645 5.08309 0.712378C3.66964 1.34359 2.46547 2.36192 1.61097 3.64864C0.701806 4.87858 0.159831 6.33918 0.0474156 7.86233C-0.0649998 9.38548 0.256713 10.9093 0.975532 12.2584C1.0491 12.3936 1.0949 12.5421 1.11026 12.6951C1.12563 12.8481 1.11025 13.0026 1.06503 13.1497C0.698087 14.4064 0.357994 15.672 0 17L0.447492 16.8663C1.65572 16.5454 2.86395 16.2246 4.07218 15.9305C4.32719 15.8777 4.59227 15.9025 4.83291 16.0018C5.91691 16.5286 7.10154 16.8185 8.30728 16.8519C9.51303 16.8853 10.712 16.6614 11.8237 16.1954C12.9355 15.7293 13.9342 15.0319 14.753 14.1498C15.5718 13.2677 16.1916 12.2214 16.5709 11.0811C16.9502 9.94086 17.0802 8.73297 16.9522 7.53854C16.8242 6.34411 16.4411 5.19077 15.8286 4.15591C15.2162 3.12106 14.3885 2.22865 13.4012 1.53856C12.4139 0.848466 11.2898 0.376667 10.1044 0.154824ZM12.3597 11.8484C12.0344 12.1384 11.6378 12.3374 11.2102 12.4251C10.7825 12.5128 10.3392 12.486 9.92537 12.3475C8.04999 11.8216 6.42295 10.6498 5.3341 9.04088C4.91819 8.47182 4.58384 7.84788 4.34067 7.18702C4.20898 6.80356 4.18523 6.39152 4.272 5.99558C4.35878 5.59965 4.55276 5.23493 4.83291 4.94099C4.9693 4.76765 5.15494 4.63923 5.36566 4.57246C5.57638 4.50569 5.8024 4.50367 6.01429 4.56666C6.19329 4.61122 6.31859 4.86969 6.47968 5.06577C6.61035 5.43387 6.76339 5.79395 6.93612 6.14422C7.06717 6.32293 7.1219 6.54601 7.08837 6.76476C7.05483 6.98351 6.93575 7.18017 6.75713 7.31179C6.35439 7.66831 6.41703 7.96243 6.70343 8.3635C7.33658 9.27186 8.21022 9.98763 9.22728 10.4313C9.51368 10.5561 9.72847 10.5828 9.91642 10.2887C9.99697 10.1728 10.1044 10.0748 10.1939 9.96781C10.713 9.31717 10.5519 9.32609 11.3752 9.6826C11.6375 9.79222 11.8917 9.92057 12.136 10.0658C12.3776 10.2085 12.7446 10.36 12.7983 10.5739C12.8499 10.8059 12.8363 11.0477 12.759 11.2726C12.6816 11.4974 12.5435 11.6967 12.3597 11.8484Z" fill="white"/>
</svg>
